<svg width="35" height="35" viewBox="0 0 35 35" fill="none" xmlns="http://www.w3.org/2000/svg">
<path d="M10.4175 0.000101178C10.2211 0.00330968 10.0339 0.0842727 9.89707 0.225243C9.76023 0.366212 9.68487 0.555687 9.6875 0.752132V9.91955H0.742188C0.545347 9.91955 0.356569 9.99775 0.217382 10.1369C0.0781946 10.2761 0 10.4649 0 10.6617C0 10.8586 0.0781946 11.0474 0.217382 11.1865C0.356569 11.3257 0.545347 11.4039 0.742188 11.4039H9.6875V23.2008H0.742188C0.545347 23.2008 0.356569 23.279 0.217382 23.4182C0.0781946 23.5574 0 23.7461 0 23.943C0 24.1398 0.0781946 24.3286 0.217382 24.4678C0.356569 24.607 0.545347 24.6852 0.742188 24.6852H9.6875V33.6451C9.6875 33.8419 9.76569 34.0307 9.90488 34.1699C10.0441 34.3091 10.2328 34.3873 10.4297 34.3873C10.6265 34.3873 10.8153 34.3091 10.9545 34.1699C11.0937 34.0307 11.1719 33.8419 11.1719 33.6451V24.6851H22.9688V33.6451C22.9688 33.8419 23.0469 34.0307 23.1861 34.1699C23.3253 34.3091 23.5141 34.3873 23.7109 34.3873C23.9078 34.3873 24.0966 34.3091 24.2357 34.1699C24.3749 34.0307 24.4531 33.8419 24.4531 33.6451V24.6851H33.6255C33.8223 24.6851 34.0111 24.6069 34.1503 24.4677C34.2895 24.3285 34.3677 24.1398 34.3677 23.9429C34.3677 23.7461 34.2895 23.5573 34.1503 23.4181C34.0111 23.2789 33.8223 23.2007 33.6255 23.2007H24.4531V11.4039H33.4815C33.5789 11.4039 33.6755 11.3847 33.7655 11.3474C33.8556 11.3101 33.9374 11.2554 34.0063 11.1865C34.0752 11.1176 34.1299 11.0357 34.1672 10.9457C34.2045 10.8556 34.2237 10.7591 34.2237 10.6617C34.2237 10.5642 34.2045 10.4677 34.1672 10.3776C34.1299 10.2876 34.0752 10.2058 34.0063 10.1369C33.9374 10.0679 33.8556 10.0133 33.7655 9.97597C33.6755 9.93867 33.5789 9.91948 33.4815 9.91948H24.4531V0.752132C24.4545 0.652808 24.4358 0.554226 24.3984 0.46223C24.3609 0.370234 24.3053 0.286696 24.235 0.216566C24.1646 0.146435 24.0809 0.0911406 23.9888 0.0539578C23.8967 0.0167751 23.7981 -0.0015389 23.6987 0.000101178C23.5023 0.00330968 23.3152 0.0842727 23.1783 0.225243C23.0415 0.366212 22.9661 0.555687 22.9688 0.752132V9.91955H11.1719V0.752132C11.1732 0.652808 11.1546 0.554226 11.1171 0.46223C11.0796 0.370234 11.0241 0.286696 10.9537 0.216566C10.8834 0.146435 10.7997 0.0911406 10.7076 0.0539578C10.6155 0.0167751 10.5168 -0.0015389 10.4175 0.000101178ZM3.90625 0.00994488C2.88516 0.00994488 1.89297 0.395882 1.15969 1.09143C0.426406 1.7869 0 2.75135 0 3.75244C0 4.75354 0.426406 5.71807 1.15969 6.41362C1.89297 7.10916 2.88516 7.49744 3.90625 7.49744C4.92734 7.49744 5.91953 7.10916 6.65281 6.41346C7.38609 5.71807 7.8125 4.75369 7.8125 3.7526C7.8125 2.75151 7.38609 1.78698 6.65281 1.09143C5.91953 0.395882 4.92734 0.00994488 3.90625 0.00994488ZM17.1875 0.00994488C16.1664 0.00994488 15.1742 0.395882 14.4409 1.09143C13.7077 1.7869 13.2812 2.75135 13.2812 3.75244C13.2812 4.75354 13.7077 5.71807 14.4409 6.41362C15.1742 7.10916 16.1664 7.49744 17.1875 7.49744C18.2086 7.49744 19.2008 7.10916 19.9341 6.41346C20.6673 5.71807 21.0938 4.75369 21.0938 3.7526C21.0938 2.75151 20.6673 1.78698 19.9341 1.09143C19.2008 0.395882 18.2086 0.00994488 17.1875 0.00994488ZM28.0347 0.730101C27.8872 0.73053 27.7432 0.774901 27.621 0.85755C27.4988 0.940199 27.404 1.05738 27.3488 1.19413C27.2935 1.33088 27.2802 1.481 27.3106 1.62534C27.341 1.76967 27.4138 1.90166 27.5195 2.00448L29.2676 3.75252L27.5781 5.44198C27.5092 5.51091 27.4545 5.59275 27.4172 5.68281C27.3799 5.77288 27.3607 5.86941 27.3607 5.9669C27.3607 6.06439 27.3799 6.16092 27.4172 6.25098C27.4545 6.34105 27.5092 6.42289 27.5781 6.49182C27.6471 6.56075 27.7289 6.61543 27.819 6.65274C27.909 6.69005 28.0056 6.70925 28.103 6.70925C28.2005 6.70925 28.2971 6.69005 28.3871 6.65274C28.4772 6.61543 28.559 6.56075 28.628 6.49182L30.3174 4.80229L32.0655 6.55284C32.2047 6.69204 32.3935 6.77024 32.5904 6.77022C32.7873 6.77019 32.9761 6.69196 33.1154 6.55272C33.2546 6.41348 33.3328 6.22464 33.3327 6.02775C33.3327 5.83086 33.2545 5.64204 33.1152 5.50284L31.3672 3.7526L33.0566 2.06315C33.164 1.95891 33.2374 1.82464 33.2672 1.67796C33.2969 1.53127 33.2816 1.37902 33.2232 1.2412C33.1649 1.10337 33.0662 0.986404 32.9402 0.90565C32.8142 0.824896 32.6667 0.784127 32.5171 0.788695C32.3242 0.794398 32.1412 0.874988 32.0067 1.01338L30.3173 2.70276L28.5692 0.954788C28.4998 0.883371 28.4166 0.826672 28.3248 0.78807C28.2329 0.749468 28.1342 0.729753 28.0346 0.730101H28.0347ZM3.90625 1.49416C4.54195 1.49416 5.19414 1.75487 5.63234 2.17049C6.07047 2.58612 6.33055 3.18221 6.33055 3.75252C6.33055 4.32284 6.07055 4.92127 5.63242 5.3369C5.19414 5.75252 4.54203 6.0108 3.90633 6.0108C3.27062 6.0108 2.61844 5.75268 2.18023 5.33705C1.74211 4.92143 1.48203 4.32299 1.48203 3.75268C1.48203 3.18221 1.74203 2.58627 2.18016 2.17065C2.61844 1.75502 3.27055 1.49432 3.90625 1.49432V1.49416ZM17.1875 1.49416C17.8232 1.49416 18.4754 1.75487 18.9136 2.17049C19.3517 2.58612 19.6118 3.18221 19.6118 3.75252C19.6118 4.32284 19.3518 4.92127 18.9137 5.3369C18.4754 5.75252 17.8233 6.0108 17.1876 6.0108C16.5519 6.0108 15.8997 5.75268 15.4615 5.33705C15.0234 4.92143 14.7633 4.32299 14.7633 3.75268C14.7633 3.18221 15.0233 2.58627 15.4614 2.17065C15.8997 1.75502 16.5518 1.49432 17.1875 1.49432V1.49416ZM11.1719 11.4039H22.9688V23.2007H11.1719V11.4039ZM30.3174 13.4571C29.2963 13.4571 28.3041 13.8431 27.5708 14.5387C26.8375 15.2342 26.4111 16.1987 26.4111 17.1998C26.4111 18.2009 26.8375 19.1654 27.5708 19.861C28.3041 20.5565 29.2963 20.9449 30.3173 20.9449C31.3384 20.9449 32.3306 20.5565 33.064 19.861C33.7972 19.1653 34.2235 18.2008 34.2235 17.1998C34.2235 16.1987 33.7972 15.2342 33.0639 14.5386C32.3305 13.8431 31.3383 13.4571 30.3172 13.4571H30.3174ZM14.9073 14.1774C14.7596 14.1774 14.6153 14.2215 14.4928 14.3039C14.3702 14.3864 14.2751 14.5035 14.2195 14.6403C14.164 14.7771 14.1505 14.9274 14.1808 15.072C14.2111 15.2165 14.2838 15.3487 14.3897 15.4517L16.1377 17.1998L14.4483 18.8892C14.3785 18.958 14.3231 19.0399 14.2851 19.1301C14.2471 19.2204 14.2274 19.3173 14.227 19.4153C14.2266 19.5132 14.2457 19.6102 14.283 19.7008C14.3203 19.7914 14.3751 19.8736 14.4444 19.9429C14.5137 20.0121 14.5959 20.067 14.6865 20.1043C14.777 20.1417 14.8741 20.1607 14.972 20.1603C15.07 20.16 15.1669 20.1402 15.2571 20.1023C15.3474 20.0643 15.4293 20.0088 15.498 19.9391L17.1875 18.2496L18.9355 19.9977C19.0045 20.0666 19.0863 20.1213 19.1764 20.1586C19.2664 20.1959 19.363 20.2151 19.4605 20.2151C19.558 20.2151 19.6545 20.1959 19.7446 20.1586C19.8346 20.1213 19.9165 20.0666 19.9854 19.9977C20.0543 19.9287 20.109 19.8469 20.1463 19.7568C20.1836 19.6668 20.2028 19.5702 20.2028 19.4728C20.2028 19.3753 20.1836 19.2787 20.1463 19.1887C20.109 19.0986 20.0543 19.0168 19.9854 18.9478L18.2373 17.1998L19.9268 15.5103C20.0342 15.4061 20.1076 15.2718 20.1373 15.1251C20.167 14.9784 20.1517 14.8262 20.0934 14.6883C20.035 14.5505 19.9363 14.4335 19.8103 14.3528C19.6843 14.2721 19.5368 14.2313 19.3872 14.2359C19.1944 14.2416 19.0114 14.3222 18.877 14.4605L17.1875 16.15L15.4395 14.402C15.3703 14.3309 15.2875 14.2743 15.1961 14.2358C15.1046 14.1972 15.0064 14.1773 14.9072 14.1774L14.9073 14.1774ZM30.3174 14.9415C30.953 14.9415 31.6053 15.1997 32.0434 15.6153C32.4817 16.031 32.7417 16.6294 32.7417 17.1997C32.7417 17.77 32.4816 18.3661 32.0434 18.7817C31.6053 19.1974 30.953 19.458 30.3173 19.458C29.6817 19.458 29.0295 19.1974 28.5913 18.7817C28.153 18.3661 27.8929 17.77 27.8929 17.1997C27.8929 16.6294 28.153 16.031 28.5913 15.6153C29.0294 15.1997 29.6816 14.9414 30.3173 14.9414L30.3174 14.9415ZM17.1875 26.8995C16.1664 26.8995 15.1742 27.2854 14.4409 27.981C13.7077 28.6766 13.2812 29.6412 13.2812 30.6422C13.2812 31.6432 13.7077 32.6102 14.4409 33.3057C15.1742 34.0014 16.1664 34.3896 17.1875 34.3896C18.2086 34.3896 19.2008 34.0014 19.9341 33.3057C20.6673 32.6102 21.0938 31.6432 21.0938 30.6421C21.0938 29.6411 20.6673 28.6765 19.9341 27.981C19.2008 27.2855 18.2085 26.8995 17.1875 26.8995ZM1.62594 27.6198C1.47824 27.6198 1.33388 27.6638 1.21135 27.7463C1.08882 27.8287 0.993676 27.9459 0.938104 28.0827C0.882532 28.2196 0.869056 28.3699 0.8994 28.5144C0.929744 28.659 1.00253 28.7912 1.10844 28.8942L2.85641 30.6446L1.16719 32.3342C1.09665 32.4027 1.04044 32.4846 1.00183 32.5751C0.963221 32.6656 0.94298 32.7628 0.942285 32.8612C0.94159 32.9596 0.960453 33.0571 0.997779 33.1481C1.03511 33.2392 1.09015 33.3218 1.15971 33.3914C1.22928 33.461 1.31197 33.516 1.40299 33.5533C1.49401 33.5906 1.59154 33.6095 1.68991 33.6088C1.78828 33.6081 1.88554 33.5878 1.97601 33.5492C2.06649 33.5106 2.14839 33.4544 2.21695 33.3839L3.90625 31.6943L5.6543 33.4424C5.72304 33.5122 5.80491 33.5677 5.89519 33.6057C5.98547 33.6436 6.08237 33.6634 6.18031 33.6637C6.27825 33.6641 6.3753 33.6451 6.46585 33.6078C6.55641 33.5704 6.63869 33.5156 6.70794 33.4463C6.7772 33.3771 6.83207 33.2948 6.86939 33.2042C6.90671 33.1137 6.92574 33.0167 6.92538 32.9187C6.92503 32.8208 6.9053 32.7239 6.86733 32.6336C6.82936 32.5433 6.7739 32.4614 6.70414 32.3927L4.95602 30.6446L6.64555 28.9551C6.75299 28.8509 6.8264 28.7166 6.85614 28.5699C6.88588 28.4232 6.87057 28.2709 6.81221 28.133C6.75384 27.9952 6.65516 27.8782 6.52912 27.7975C6.40308 27.7167 6.25556 27.676 6.10594 27.6806C5.91316 27.6863 5.73019 27.7669 5.59578 27.9052L3.90625 29.5949L2.1582 27.8443C2.089 27.7732 2.00624 27.7167 1.91482 27.6781C1.8234 27.6395 1.72517 27.6197 1.62594 27.6197V27.6198ZM17.1875 28.3863C17.8232 28.3863 18.4754 28.6444 18.9136 29.0601C19.3517 29.4757 19.6118 30.0717 19.6118 30.6421C19.6118 31.2124 19.3518 31.8109 18.9137 32.2265C18.4754 32.6421 17.8233 32.9004 17.1876 32.9004C16.5519 32.9004 15.8997 32.6421 15.4615 32.2265C15.0234 31.8109 14.7633 31.2124 14.7633 30.6421C14.7633 30.0716 15.0233 29.4757 15.4614 29.0599C15.8997 28.6443 16.5518 28.3861 17.1875 28.3861V28.3863Z" fill="black"/>
</svg>
